<svg width="31" height="37" viewBox="444 324 31 37">
  <path d="M468.5297,358.3604 C467.3987,359.4904 464.3977,359.4904 463.2667,358.3604 C462.9717,358.0654 462.4947,358.0654 462.1997,358.3604 C461.0687,359.4904 458.0687,359.4914 456.9367,358.3594 C456.6427,358.0654 456.1647,358.0654 455.8697,358.3604 C454.7397,359.4904 452.6017,359.4904 451.4707,358.3604 C451.1767,358.0654 450.6987,358.0654 450.4047,358.3604 C450.1097,358.6544 450.1097,359.1324 450.4047,359.4274 C451.2747,360.2964 452.4727,360.7324 453.6707,360.7324 C454.6447,360.7324 455.6177,360.4444 456.4157,359.8704 C458.1287,361.0104 461.0267,361.0074 462.7337,359.8624 C464.6387,361.1404 468.0287,360.9944 469.5977,359.4274 C469.8917,359.1324 469.8917,358.6544 469.5977,358.3604 C469.3017,358.0654 468.8247,358.0654 468.5297,358.3604 M473.4107,340.1544 C473.5207,340.3634 473.7497,340.4834 473.9817,340.4534 C474.2157,340.4244 474.4067,340.2534 474.4607,340.0234 C475.3767,336.1634 475.1247,333.2974 473.7097,331.5064 C473.1057,330.7434 472.2957,330.1814 471.3017,329.8344 C470.5117,329.5594 469.6017,329.4194 468.5987,329.4194 C467.3927,329.4194 466.2947,329.6184 465.5947,329.7824 C465.6427,329.4574 465.7407,329.0554 465.9337,328.6484 C466.5057,327.4444 467.6447,326.7444 469.3147,326.5664 C469.5477,326.5414 469.7407,326.3764 469.8017,326.1494 C469.8617,325.9234 469.7757,325.6834 469.5867,325.5464 C468.1627,324.5204 466.7117,324.0004 465.2727,324.0004 C462.8627,324.0004 461.0507,325.4234 460.0007,326.5404 C458.9487,325.4234 457.1367,324.0004 454.7277,324.0004 C453.2887,324.0004 451.8377,324.5204 450.4147,325.5464 C450.2247,325.6834 450.1387,325.9234 450.1987,326.1494 C450.2587,326.3764 450.4527,326.5414 450.6857,326.5664 C452.3557,326.7444 453.4947,327.4444 454.0667,328.6484 C454.2597,329.0554 454.3577,329.4574 454.4057,329.7824 C453.7057,329.6184 452.6077,329.4194 451.4017,329.4194 C450.3987,329.4194 449.4887,329.5594 448.6987,329.8344 C447.7047,330.1804 446.8937,330.7434 446.2907,331.5064 C444.8747,333.2974 444.6227,336.1624 445.5387,340.0234 C445.5927,340.2534 445.7847,340.4244 446.0187,340.4534 C446.2517,340.4834 446.4797,340.3634 446.5887,340.1544 C448.1137,337.2414 449.7807,335.6364 451.2847,335.6364 C451.4207,335.6364 451.5467,335.6494 451.6607,335.6704 C451.1147,336.1764 450.4557,337.0054 450.1837,338.2044 C449.7557,340.1074 450.4357,342.2874 452.2087,344.6834 C452.3377,344.8584 452.5547,344.9444 452.7697,344.9014 C452.9837,344.8604 453.1547,344.7004 453.2097,344.4884 C453.6397,342.8244 454.9217,338.9534 457.5127,338.9534 C457.5657,338.9534 457.6087,338.9544 457.6437,338.9564 C457.6627,338.9564 457.6807,338.9574 457.6967,338.9574 C457.9257,339.0244 458.0747,339.0904 458.1707,339.1424 C457.9867,339.5364 457.8837,340.0524 457.8837,340.6044 C457.8837,341.1074 457.9687,341.5824 458.1207,341.9604 C457.8927,342.3614 457.7657,342.8824 457.7657,343.4464 C457.7657,343.9164 457.8577,344.3664 458.0267,344.7424 C457.7127,345.1694 457.5277,345.7744 457.5277,346.4294 C457.5277,346.9894 457.6637,347.5144 457.9037,347.9244 C457.5207,348.4324 457.2917,349.2384 457.2917,350.1644 C457.2917,351.0844 457.5177,351.8764 457.8957,352.3834 C456.1967,352.8694 453.9487,352.5894 452.8947,351.5354 C452.6117,351.2524 452.1097,351.2524 451.8277,351.5354 C451.1447,352.2184 450.1367,352.6094 449.0627,352.6094 C447.9887,352.6094 446.9807,352.2184 446.2977,351.5354 C446.0027,351.2414 445.5247,351.2414 445.2307,351.5354 C444.9357,351.8304 444.9357,352.3084 445.2307,352.6024 C446.1947,353.5654 447.5907,354.1194 449.0627,354.1194 C450.2847,354.1194 451.4557,353.7374 452.3687,353.0564 C453.3837,353.7704 454.7827,354.1284 456.1807,354.1284 C457.5837,354.1284 458.9867,353.7684 460.0017,353.0494 C460.9687,353.7274 462.3427,354.1194 463.8197,354.1194 C465.2927,354.1194 466.6627,353.7294 467.6297,353.0544 C469.6977,354.5944 472.9287,354.4434 474.7697,352.6024 C475.0647,352.3084 475.0647,351.8304 474.7697,351.5354 C474.4747,351.2414 473.9967,351.2414 473.7027,351.5354 C472.2807,352.9564 469.5937,352.9564 468.1727,351.5354 C467.8897,351.2524 467.3877,351.2524 467.1057,351.5354 C466.4417,352.1974 465.1837,352.6094 463.8197,352.6094 C463.2137,352.6094 462.6327,352.5244 462.1117,352.3764 C462.4857,351.8684 462.7097,351.0794 462.7097,350.1644 C462.7097,349.2394 462.4797,348.4324 462.0957,347.9254 C462.3367,347.5154 462.4717,346.9904 462.4717,346.4294 C462.4717,345.7734 462.2877,345.1684 461.9737,344.7414 C462.1417,344.3664 462.2357,343.9154 462.2357,343.4464 C462.2357,342.8824 462.1077,342.3614 461.8797,341.9604 C462.0317,341.5824 462.1167,341.1074 462.1167,340.6044 C462.1167,340.0504 462.0137,339.5364 461.8307,339.1434 C461.9257,339.0904 462.0757,339.0244 462.3047,338.9574 C462.3207,338.9574 462.3387,338.9564 462.3577,338.9564 C462.3917,338.9544 462.4357,338.9534 462.4877,338.9534 C465.0787,338.9534 466.3597,342.8244 466.7907,344.4884 C466.8447,344.7004 467.0167,344.8604 467.2307,344.9014 C467.4447,344.9444 467.6637,344.8584 467.7927,344.6834 C469.5647,342.2874 470.2447,340.1074 469.8157,338.2044 C469.5457,337.0054 468.8867,336.1774 468.3407,335.6714 C468.4547,335.6494 468.5797,335.6364 468.7157,335.6364 C470.2197,335.6364 471.8867,337.2414 473.4107,340.1544 M458.7357,333.1544 C458.1967,333.6944 457.4527,333.9644 456.7097,333.9644 C455.9667,333.9644 455.2237,333.6954 454.6847,333.1544 C454.5027,332.9744 454.5027,332.6794 454.6847,332.4984 C454.8657,332.3164 455.1597,332.3164 455.3417,332.4984 C456.0447,333.2004 457.3747,333.2004 458.0777,332.4984 C458.2597,332.3164 458.5547,332.3164 458.7357,332.4984 C458.9177,332.6794 458.9177,332.9744 458.7357,333.1544 M465.3157,333.1544 C464.8067,333.6654 464.0677,333.9574 463.2907,333.9574 C462.5127,333.9574 461.7747,333.6654 461.2647,333.1544 C461.0827,332.9744 461.0827,332.6794 461.2647,332.4984 C461.4457,332.3164 461.7407,332.3164 461.9227,332.4984 C462.2587,332.8344 462.7577,333.0274 463.2907,333.0274 C463.8227,333.0274 464.3217,332.8344 464.6587,332.4984 C464.8397,332.3164 465.1337,332.3164 465.3157,332.4984 C465.4977,332.6794 465.4977,332.9734 465.3157,333.1544" id="Fill-1" stroke="none" fill="#000000" fill-rule="evenodd"></path>
</svg>