<?xml version="1.0" encoding="utf-8"?>
<!-- Generator: Adobe Illustrator 16.0.0, SVG Export Plug-In . SVG Version: 6.00 Build 0)  -->
<!DOCTYPE svg PUBLIC "-//W3C//DTD SVG 1.1//EN" "http://www.w3.org/Graphics/SVG/1.1/DTD/svg11.dtd">
<svg version="1.1" id="Layer_1" xmlns="http://www.w3.org/2000/svg" xmlns:xlink="http://www.w3.org/1999/xlink" x="0px" y="0px"
	 width="60px" height="22px" viewBox="0 0 60 22" enable-background="new 0 0 60 22" xml:space="preserve">
<g>
	<polygon fill="#FFFFFF" points="30,4.992 10.32,4.992 10.32,0 0,5.5 10.32,11 10.32,6.008 30,6.008 	"/>
	<polygon fill="#FFFFFF" points="30,6.008 49.68,6.008 49.68,11 60,5.5 49.68,0 49.68,4.992 30,4.992 	"/>
	<polygon fill="#1D1D1D" points="30,15.992 10.32,15.992 10.32,11 0,16.5 10.32,22 10.32,17.008 30,17.008 	"/>
	<polygon fill="#1D1D1D" points="30,17.008 49.68,17.008 49.68,22 60,16.5 49.68,11 49.68,15.992 30,15.992 	"/>
</g>
</svg>
