<?xml version="1.0" encoding="utf-8"?>
<!-- Generator: Adobe Illustrator 16.0.0, SVG Export Plug-In . SVG Version: 6.00 Build 0)  -->
<!DOCTYPE svg PUBLIC "-//W3C//DTD SVG 1.1//EN" "http://www.w3.org/Graphics/SVG/1.1/DTD/svg11.dtd">
<svg version="1.1" id="Layer_1" xmlns="http://www.w3.org/2000/svg" xmlns:xlink="http://www.w3.org/1999/xlink" x="0px" y="0px"
	 width="20px" height="20px" viewBox="31 31.667 20 20" enable-background="new 31 31.667 20 20" xml:space="preserve">
<path d="M50.633,32.034c-0.243-0.245-0.563-0.366-0.883-0.366h-17.5c-0.319,0-0.64,0.122-0.883,0.366
	C31.122,32.278,31,32.598,31,32.917l0,17.501c0,0.319,0.122,0.64,0.366,0.884c0.244,0.244,0.564,0.366,0.883,0.366h17.5
	c0.319,0,0.641-0.122,0.884-0.366C50.878,51.058,51,50.737,51,50.418V34.097v-1.18C51,32.598,50.878,32.278,50.633,32.034z
	 M41.482,33.475c0.646,0,1.168,0.524,1.168,1.167c0,0.647-0.523,1.168-1.168,1.168s-1.166-0.521-1.166-1.168
	C40.316,33.999,40.838,33.475,41.482,33.475z M37.763,33.475c0.645,0,1.167,0.524,1.167,1.167c0,0.647-0.523,1.168-1.167,1.168
	c-0.645,0-1.167-0.521-1.167-1.168C36.596,33.999,37.118,33.475,37.763,33.475z M34.042,33.475c0.645,0,1.167,0.524,1.167,1.167
	c0,0.647-0.523,1.168-1.167,1.168c-0.645,0-1.167-0.521-1.167-1.168C32.875,33.999,33.397,33.475,34.042,33.475z M49.125,49.792
	h-16.25V37.617h16.25V49.792z"/>
</svg>
