<?xml version="1.0" encoding="utf-8"?>
<!-- Generator: Adobe Illustrator 16.0.0, SVG Export Plug-In . SVG Version: 6.00 Build 0)  -->
<!DOCTYPE svg PUBLIC "-//W3C//DTD SVG 1.1//EN" "http://www.w3.org/Graphics/SVG/1.1/DTD/svg11.dtd">
<svg version="1.1" id="Layer_1" xmlns="http://www.w3.org/2000/svg" xmlns:xlink="http://www.w3.org/1999/xlink" x="0px" y="0px"
	 width="16px" height="16px" viewBox="0 0 16 16" enable-background="new 0 0 16 16" xml:space="preserve">
<path d="M15.988,14.58l-5.834-5.835c1.5-2.172,1.295-5.175-0.637-7.106C8.465,0.585,7.065,0.006,5.577,0.006
	c-1.489,0-2.889,0.58-3.943,1.633C0.581,2.692,0,4.092,0,5.581C0,7.07,0.58,8.47,1.634,9.523c1.054,1.053,2.454,1.633,3.942,1.633
	c1.149,0,2.24-0.354,3.166-0.995l5.833,5.833L15.988,14.58z M3.048,8.109C2.372,7.434,2,6.536,2,5.581s0.372-1.853,1.048-2.528
	s1.574-1.047,2.529-1.047c0.954,0,1.852,0.372,2.527,1.047c1.395,1.394,1.393,3.662,0,5.056C6.75,9.46,4.397,9.459,3.048,8.109z"/>
<g>
	<circle fill="#FFFFFF" stroke="#000000" stroke-width="2" stroke-miterlimit="10" cx="35.542" cy="5.542" r="4.575"/>
	<line fill="none" stroke="#000000" stroke-width="2" stroke-miterlimit="10" x1="38.777" y1="8.777" x2="45.248" y2="15.248"/>
</g>
</svg>
