<?xml version="1.0" encoding="utf-8"?>
<!-- Generator: Adobe Illustrator 16.0.0, SVG Export Plug-In . SVG Version: 6.00 Build 0)  -->
<!DOCTYPE svg PUBLIC "-//W3C//DTD SVG 1.1//EN" "http://www.w3.org/Graphics/SVG/1.1/DTD/svg11.dtd">
<svg version="1.1" id="Layer_1" xmlns="http://www.w3.org/2000/svg" xmlns:xlink="http://www.w3.org/1999/xlink" x="0px" y="0px"
	 width="226px" height="26px" viewBox="0 0 226 26" enable-background="new 0 0 226 26" xml:space="preserve">
<g>
	<polygon points="0.241,1.038 0.241,25.48 3.288,25.48 3.288,13.485 11.783,13.485 11.783,10.698 3.288,10.698 3.288,3.826 
		12.074,3.826 12.074,1.038 	"/>
	<g>
		<defs>
			<rect id="SVGID_1_" x="0.241" width="225.519" height="26"/>
		</defs>
		<clipPath id="SVGID_2_">
			<use xlink:href="#SVGID_1_"  overflow="visible"/>
		</clipPath>
		<path clip-path="url(#SVGID_2_)" d="M46.209,13.259c0-5.381-4.02-9.888-9.758-9.888c-5.739,0-9.759,4.507-9.759,9.888
			c0,5.576,4.474,9.888,9.759,9.888C41.735,23.146,46.209,18.835,46.209,13.259 M49.256,13.259C49.256,20.521,43.518,26,36.451,26
			c-7.068,0-12.806-5.479-12.806-12.741c0-7.002,5.803-12.74,12.806-12.74C43.453,0.519,49.256,6.257,49.256,13.259"/>
		<path clip-path="url(#SVGID_2_)" d="M64.651,12.61h0.973c3.112,0,6.483-0.583,6.483-4.473c0-3.825-3.631-4.377-6.645-4.377h-0.811
			V12.61z M76.809,25.481h-3.696L65.916,15.14h-1.264v10.342h-3.048V1.037h3.696c2.172,0,4.507,0.032,6.452,1.135
			c2.042,1.199,3.209,3.501,3.209,5.835c0,3.501-2.334,6.419-5.868,6.84L76.809,25.481z"/>
	</g>
	<path d="M98.657,6.678L103,16.565h-8.688L98.657,6.678z M98.657,0L86.986,25.48h3.274l2.788-6.127h11.217l2.788,6.127h3.275
		L98.657,0z"/>
	<g>
		<defs>
			<rect id="SVGID_3_" x="0.241" width="225.519" height="26"/>
		</defs>
		<clipPath id="SVGID_4_">
			<use xlink:href="#SVGID_3_"  overflow="visible"/>
		</clipPath>
		<path clip-path="url(#SVGID_4_)" d="M143.068,13.161v0.974c0,6.711-4.734,11.866-11.574,11.866
			c-6.842,0-12.354-5.901-12.354-12.678c0-7.034,5.643-12.805,12.678-12.805c3.793,0,7.553,1.719,9.953,4.733l-2.141,2.042
			c-1.752-2.399-4.701-3.987-7.684-3.987c-5.479,0-9.758,4.441-9.758,9.92c0,5.122,4.215,9.985,9.498,9.985
			c3.793,0,7.879-3.274,8.008-7.263h-6.322v-2.788H143.068z"/>
	</g>
	<polygon points="156.453,1.038 156.453,25.48 169.582,25.48 169.582,22.693 159.5,22.693 159.5,13.453 169.293,13.453 
		169.293,10.666 159.5,10.666 159.5,3.826 169.582,3.826 169.582,1.038 	"/>
	<g>
		<defs>
			<rect id="SVGID_5_" x="0.241" width="225.519" height="26"/>
		</defs>
		<clipPath id="SVGID_6_">
			<use xlink:href="#SVGID_5_"  overflow="visible"/>
		</clipPath>
		<path clip-path="url(#SVGID_6_)" d="M187.412,12.61h0.971c3.113,0,6.484-0.583,6.484-4.473c0-3.825-3.631-4.377-6.646-4.377
			h-0.809V12.61z M199.568,25.481h-3.695l-7.197-10.342h-1.264v10.342h-3.049V1.037h3.695c2.172,0,4.508,0.032,6.453,1.135
			c2.041,1.199,3.209,3.501,3.209,5.835c0,3.501-2.334,6.419-5.869,6.84L199.568,25.481z"/>
		<path clip-path="url(#SVGID_6_)" d="M222.551,5.673c-0.908-1.523-2.074-2.302-3.922-2.302c-1.945,0-4.086,1.33-4.086,3.47
			c0,1.912,1.881,2.917,3.402,3.501l1.752,0.68c3.469,1.362,6.062,3.275,6.062,7.359c0,4.442-3.438,7.619-7.814,7.619
			c-3.955,0-7.033-2.918-7.553-6.841l3.08-0.648c-0.033,2.691,2.109,4.636,4.734,4.636s4.506-2.204,4.506-4.766
			c0-2.625-2.107-3.76-4.215-4.636l-1.686-0.713c-2.789-1.199-5.316-2.789-5.316-6.191c0-3.956,3.5-6.322,7.195-6.322
			c2.725,0,4.961,1.329,6.291,3.696L222.551,5.673z"/>
	</g>
</g>
</svg>
